<?xml version="1.0" encoding="iso-8859-1"?>
<!-- Generator: Adobe Illustrator 19.0.0, SVG Export Plug-In . SVG Version: 6.00 Build 0)  -->
<svg version="1.1" id="Layer_1" xmlns="http://www.w3.org/2000/svg" xmlns:xlink="http://www.w3.org/1999/xlink" x="0px" y="0px"
	 viewBox="0 0 512 512" style="enable-background:new 0 0 512 512;" xml:space="preserve">
<rect x="7.853" y="7.853" style="fill:#BDCCD4;" width="496.294" height="496.294"/>
<polyline style="fill:#6B7E87;" points="504.147,7.853 504.147,504.147 7.853,504.147 "/>
<rect x="39.871" y="39.871" style="fill:#CD5257;" width="432.258" height="432.258"/>
<polyline style="fill:#C1272D;" points="39.872,472.128 39.872,39.872 472.128,39.872 "/>
<path d="M512,512H0V0h512V512z M15.706,496.294h480.589V15.706H15.706V496.294z"/>
<polygon style="fill:#FFFFFF;" points="374.758,148.348 363.651,137.243 256,244.894 148.349,137.243 137.242,148.348 244.894,256 
	137.242,363.652 148.349,374.757 256,267.106 363.651,374.757 374.758,363.652 267.106,256 "/>
<polygon points="47.64,71.722 31.935,71.722 31.935,31.935 71.722,31.935 71.722,47.64 47.64,47.64 "/>
<polygon points="480.065,71.722 464.36,71.722 464.36,47.64 440.278,47.64 440.278,31.935 480.065,31.935 "/>
<polygon points="71.722,480.065 31.935,480.065 31.935,440.278 47.64,440.278 47.64,464.36 71.722,464.36 "/>
<polygon points="480.065,480.065 440.278,480.065 440.278,464.36 464.36,464.36 464.36,440.278 480.065,440.278 "/>
<rect x="31.935" y="87.427" width="15.706" height="337.145"/>
<rect x="464.36" y="87.427" width="15.706" height="337.145"/>
<rect x="87.427" y="31.935" width="337.145" height="15.706"/>
<rect x="87.427" y="464.36" width="337.145" height="15.706"/>
<g>
</g>
<g>
</g>
<g>
</g>
<g>
</g>
<g>
</g>
<g>
</g>
<g>
</g>
<g>
</g>
<g>
</g>
<g>
</g>
<g>
</g>
<g>
</g>
<g>
</g>
<g>
</g>
<g>
</g>
</svg>
